# xmcd
# 
# Track frame offsets:
#     150
#     12465
#     23962
#     36747
#     47735
#     55992
#     68010
#     80647
#     97592
#     109495
#     120955
#     129477
#     137752
#     149762
#     165840
#     175492
#     191787
#     204487
#     217152
#     227627
#     245797
#     256425
# 
# Disc length: 3599
# 
# Revision: 5
# Processed by: cddbd v1.5.2PL0 Copyright (c) Steve Scherf et al.
# Submitted via: fre:ac v1.0.17
# 
DISCID=4d0e0d16
DTITLE=Johnny Cash - The Man In Black - 22 Greatest Hits
DYEAR=1996
DGENRE=Country
TTITLE0=Folsom Prison Blues
TTITLE1=These Hands
TTITLE2=Peace In The Valley
TTITLE3=Rock Island Line
TTITLE4=The Wall
TTITLE5=I Still Miss Someone
TTITLE6=Ring Of Fire
TTITLE7=Sunday Morning Coming Down
TTITLE8=The Highwayman
TTITLE9=Big River
TTITLE10=I Got Stripes
TTITLE11=Get Rhythm
TTITLE12=Sixteen Tons
TTITLE13=A Boy Named Sue
TTITLE14=Help Me
TTITLE15=City Of New Orleans
TTITLE16=Long Black Veil
TTITLE17=Jackson
TTITLE18=If I Were A Carpenter
TTITLE19=Orange Blossom Special
TTITLE20=There You Go
TTITLE21=I Walk The Line
EXTD=
EXTT0=
EXTT1=
EXTT2=
EXTT3=
EXTT4=
EXTT5=
EXTT6=
EXTT7=
EXTT8=
EXTT9=
EXTT10=
EXTT11=
EXTT12=
EXTT13=
EXTT14=
EXTT15=
EXTT16=
EXTT17=
EXTT18=
EXTT19=
EXTT20=
EXTT21=
PLAYORDER=
